<svg version="1.1" id="Layer_1" xmlns="http://www.w3.org/2000/svg" xmlns:xlink="http://www.w3.org/1999/xlink" x="0px" y="0px"
	 width="100%" viewBox="0 0 394 128" enable-background="new 0 0 394 128" xml:space="preserve">
<path fill="#F8FCF9" opacity="1.000000" stroke="none" 
	d="
M306.000000,129.000000 
	C204.000015,129.000000 102.500023,129.000000 1.000027,129.000000 
	C1.000018,86.333351 1.000018,43.666702 1.000009,1.000039 
	C132.333298,1.000026 263.666595,1.000026 394.999939,1.000013 
	C394.999939,43.666630 394.999939,86.333260 394.999969,128.999939 
	C365.500000,129.000000 336.000000,129.000000 306.000000,129.000000 
M248.708649,120.796326 
	C248.601364,120.183632 248.494080,119.570938 248.276627,118.032944 
	C248.314972,99.373352 248.353333,80.713753 248.731552,61.863419 
	C248.615845,61.557076 248.500137,61.250736 248.188110,60.073612 
	C246.729156,59.711502 245.276199,59.068134 243.810211,59.036964 
	C238.085815,58.915253 232.357300,58.987278 226.499832,58.987278 
	C226.084183,57.273876 225.744263,55.872684 225.659332,53.952312 
	C225.486862,53.622238 225.314392,53.292160 224.938034,52.231865 
	C224.328232,50.227451 223.718430,48.223042 223.108627,46.218628 
	C222.780441,46.291286 222.452255,46.363941 222.124069,46.436596 
	C221.954788,48.214081 221.785507,49.991566 220.995911,51.988976 
	C220.342453,53.338844 219.688995,54.688717 218.841949,56.798203 
	C217.056625,57.543522 215.278549,58.885246 213.484436,58.907040 
	C210.005936,58.949291 208.560654,60.298313 207.891388,63.680859 
	C206.441162,71.010536 204.579041,78.259071 202.863876,85.535736 
	C202.407974,87.469879 201.874146,89.385651 201.376083,91.309860 
	C201.063919,91.234818 200.751770,91.159782 200.439606,91.084740 
	C197.515152,80.409271 194.590683,69.733795 191.646042,58.984653 
	C189.166290,58.984653 187.177689,58.975525 185.189255,58.990051 
	C184.569305,58.994576 183.949844,59.063030 182.098389,59.180107 
	C185.359390,80.280045 188.552582,100.941261 191.747528,121.613861 
	C198.659058,121.613861 204.742554,121.613861 211.195084,121.613861 
	C213.852295,102.284485 216.478882,83.177910 219.387054,63.844193 
	C219.425308,63.730415 219.516769,63.602478 219.490997,63.505753 
	C219.433548,63.289936 219.317566,63.089706 219.314774,62.129913 
	C219.555954,60.089954 219.797134,58.049995 220.567245,56.071629 
	C220.912140,56.129337 221.257050,56.187050 221.622711,56.773457 
	C221.617737,57.126110 221.612747,57.478764 221.243835,58.076126 
	C221.371033,58.439598 221.498230,58.803066 221.651093,60.081554 
	C221.662262,79.673370 221.673431,99.265182 221.301331,119.234283 
	C221.471375,119.854134 221.641403,120.473984 221.851028,121.172531 
	C221.851028,121.172531 221.866241,121.259300 222.387802,121.958748 
	C228.144852,122.034149 233.903687,122.225250 239.658173,122.135544 
	C242.483795,122.091492 245.301285,121.526756 248.157578,121.092178 
	C248.157578,121.092178 248.268677,121.087975 248.708649,120.796326 
M155.745148,51.962673 
	C157.080643,51.909023 158.416138,51.855377 160.450638,51.385971 
	C161.289612,49.601772 162.265137,47.867920 162.944611,46.024918 
	C166.439728,36.545040 169.858795,27.037132 173.749908,16.310959 
	C177.463989,27.688019 180.840363,37.736187 183.986221,47.856018 
	C184.869827,50.698471 186.235092,51.706699 189.266388,51.656143 
	C197.180923,51.524151 197.175797,51.685516 199.453369,59.078690 
	C199.671112,59.785511 200.064621,60.438187 200.944305,62.349785 
	C200.944305,58.834480 201.196823,56.686020 200.901596,54.615669 
	C199.446548,44.411877 197.937408,34.213768 196.260727,24.044418 
	C195.357880,18.568583 194.080109,13.154561 192.667496,7.346777 
	C192.121841,7.459434 191.576202,7.572090 190.103439,7.854384 
	C178.237473,7.854384 166.371490,7.854384 154.217270,7.854384 
	C154.217270,22.136017 154.197830,35.572205 154.260437,49.008015 
	C154.264648,49.915760 154.887222,50.820625 155.745148,51.962673 
M211.603867,7.377409 
	C210.736099,7.583904 209.868317,7.790400 208.579636,8.682280 
	C206.654114,23.062244 204.728607,37.442207 202.795105,51.881908 
	C212.441437,52.248680 212.424744,52.242943 215.231110,44.078835 
	C218.184784,35.486198 221.174759,26.906038 224.588547,17.051210 
	C226.936646,27.598473 228.888474,36.818695 231.106277,45.974491 
	C231.594574,47.990353 233.026688,49.777603 234.745789,52.018261 
	C238.823761,51.902721 242.901718,51.787182 247.634018,51.321499 
	C247.884308,50.900784 248.134598,50.480068 248.725662,49.867970 
	C248.770096,49.745670 248.886703,49.583099 248.845215,49.508759 
	C248.728378,49.299374 248.546524,49.126266 248.285767,48.015465 
	C248.285767,34.783142 248.285767,21.550817 248.285767,7.784518 
	C235.873169,7.784518 223.958725,7.784518 211.603867,7.377409 
M139.460602,51.992847 
	C142.553864,51.933537 145.647141,51.874222 149.525116,51.406445 
	C149.839645,50.913605 150.154160,50.420765 150.871063,49.403473 
	C150.680908,46.945553 150.490738,44.487633 150.112564,41.152359 
	C150.057129,38.477329 150.001678,35.802299 150.028595,32.395554 
	C149.742676,31.269098 149.456772,30.142643 148.853714,28.361265 
	C147.044525,22.013849 143.180298,16.452690 137.896240,13.397066 
	C128.861008,8.172243 118.488708,7.039475 108.008095,8.009307 
	C94.108353,9.295529 82.787369,16.728956 80.160149,27.812771 
	C78.392166,35.271580 78.425972,43.157471 77.666084,50.728897 
	C86.126556,52.473034 86.277878,52.391014 89.021957,45.835285 
	C92.418083,37.721794 95.812096,29.607292 99.257019,21.514507 
	C99.713020,20.443258 100.463303,19.497276 101.386055,17.988396 
	C104.810364,29.563656 107.993813,40.324696 111.180214,51.095760 
	C115.620979,51.095760 119.590233,51.095760 123.837044,51.095760 
	C125.337845,56.415802 126.820595,61.671864 128.656265,68.178917 
	C131.183167,62.812984 133.016373,58.585732 135.181274,54.535782 
	C135.795197,53.387287 137.376404,52.755856 139.460602,51.992847 
M13.584747,63.196331 
	C17.391605,65.797974 21.198463,68.399620 25.348465,71.474030 
	C25.708849,71.601105 26.069233,71.728180 26.797306,71.858910 
	C26.797306,71.858910 27.018211,72.152870 27.302637,72.551445 
	C27.551905,72.785240 27.847193,72.911072 28.868073,73.032898 
	C31.901278,75.080116 34.934483,77.127327 38.219936,79.549019 
	C38.431549,79.777496 38.689461,79.925079 39.665611,80.193398 
	C44.856659,85.046730 46.161526,94.429474 42.339874,101.167969 
	C42.198959,101.273293 42.101578,101.409706 41.769264,101.997963 
	C41.604973,102.033928 41.440678,102.069893 40.650787,102.064468 
	C40.107620,102.317032 39.564453,102.569603 38.342438,102.987740 
	C37.886578,102.917313 37.430714,102.846878 36.665295,102.390594 
	C36.203358,102.238495 35.741421,102.086395 34.542675,101.633301 
	C33.792896,94.628006 33.043121,87.622704 32.264854,80.351181 
	C23.131819,80.351181 13.754532,80.351181 3.705460,80.351181 
	C4.019685,86.447571 4.248497,92.218826 4.628914,97.980072 
	C5.341317,108.769127 11.577034,115.357384 21.312431,118.770050 
	C33.651878,123.095535 46.143024,123.084709 58.427979,118.478622 
	C64.432388,116.227348 70.190689,113.130737 72.134171,106.398430 
	C75.498634,94.743813 75.769882,82.811371 70.708397,71.739868 
	C67.202301,64.070648 61.306911,58.480251 51.362610,58.850155 
	C37.562073,59.363495 23.728180,58.980270 9.598255,59.125687 
	C9.526882,59.213318 9.378852,59.326485 9.397999,59.383968 
	C9.464908,59.584850 9.589549,59.766506 10.224441,60.326824 
	C10.480074,60.672146 10.735707,61.017467 11.106379,61.921528 
	C11.709282,62.289188 12.312185,62.656849 13.584747,63.196331 
M149.492889,100.735733 
	C149.458832,100.174149 149.424759,99.612572 149.352737,98.235466 
	C149.533508,97.727379 149.714279,97.219284 149.991730,96.467453 
	C150.037231,96.293045 150.032364,96.120049 149.883652,95.021263 
	C150.080414,83.995300 150.277176,72.969330 150.696136,61.764050 
	C150.831711,61.464935 150.755173,61.227539 150.252655,60.387794 
	C150.166122,59.931656 150.079590,59.475521 149.868576,58.676708 
	C149.582382,58.720181 149.296173,58.763653 148.142517,58.963840 
	C142.961868,58.005070 140.130844,60.107708 138.211517,65.113541 
	C135.479980,72.237709 131.866959,79.025291 128.589966,85.937439 
	C128.097458,86.976280 127.384697,87.910690 126.398666,89.496910 
	C124.066391,80.583382 121.721031,72.601334 119.957458,64.492752 
	C118.979980,59.998489 117.309753,57.705868 112.343269,58.754314 
	C110.165764,59.213993 107.810501,58.831654 105.713448,58.831654 
	C103.748848,52.431786 101.955414,46.589497 99.775887,39.489468 
	C97.061722,45.962887 95.127510,51.100468 92.710861,56.000103 
	C92.041122,57.357948 90.024170,58.643414 88.475533,58.852455 
	C85.245056,59.288525 81.914665,58.984428 78.877052,58.984428 
	C78.877052,71.437744 78.691345,83.380684 78.936996,95.314743 
	C79.126595,104.525444 83.561058,111.905167 91.582489,116.016190 
	C97.200790,118.895592 103.688881,120.746307 109.977913,121.523186 
	C128.811798,123.849724 142.191391,116.497581 149.492889,100.735733 
M390.194275,113.318527 
	C387.532379,96.092247 384.870453,78.865967 382.178436,61.444866 
	C379.708008,61.299953 377.732330,61.140503 375.753571,61.075279 
	C365.396057,60.733864 365.398285,60.741325 362.002991,50.785625 
	C361.927002,50.562759 361.612640,50.421181 361.149017,50.011539 
	C360.519958,52.224842 359.632629,54.244442 359.420868,56.332554 
	C359.035919,60.128231 357.227173,61.419918 353.505127,60.957664 
	C350.903290,60.634525 348.228912,60.895348 345.491699,60.895348 
	C342.232056,72.801086 339.031403,84.491325 335.830750,96.181557 
	C335.261047,96.135452 334.691315,96.089348 334.121582,96.043243 
	C332.744965,84.153778 331.368378,72.264313 329.984528,60.312233 
	C326.868713,60.312233 324.136322,60.312233 321.303986,60.312233 
	C318.446777,80.836037 315.632751,101.049644 312.785156,121.504181 
	C323.809204,121.504181 334.336853,121.504181 345.010986,121.504181 
	C345.733765,114.582336 346.417908,108.030785 347.105713,101.443947 
	C350.930939,101.443947 354.199799,101.443947 357.759399,101.443947 
	C358.429260,108.332397 359.079529,115.019646 359.708771,121.490479 
	C370.587189,121.490479 380.803131,121.490479 391.401855,121.490479 
	C391.002533,118.761177 390.668579,116.478554 390.194275,113.318527 
M295.266693,75.972153 
	C310.400818,74.787552 316.706299,70.568283 318.832703,58.983120 
	C309.985413,58.983120 301.375183,58.873203 292.770813,59.049084 
	C290.137512,59.102913 288.941833,58.166992 288.199219,55.756626 
	C286.885406,51.492180 285.308014,47.308926 283.467926,42.019508 
	C281.552460,48.273659 279.965881,53.453827 278.269196,58.993660 
	C269.738678,58.993660 261.307678,58.993660 252.189362,58.993660 
	C252.189362,79.759323 252.189362,100.102844 252.189362,121.153595 
	C262.280762,121.153595 272.859772,121.153595 283.942383,121.153595 
	C283.942383,106.176300 283.942383,91.271057 283.942383,75.982582 
	C287.724854,75.982582 291.024506,75.982582 295.266693,75.972153 
M280.499023,25.087820 
	C281.147736,23.332867 281.796448,21.577913 282.952332,18.450983 
	C284.080780,21.335033 284.698761,22.776232 285.213654,24.253368 
	C287.997101,32.239090 290.660980,40.268707 293.609283,48.192707 
	C294.134033,49.603096 295.761871,51.559891 296.950500,51.610294 
	C304.366089,51.924751 311.801666,51.768925 319.004150,51.768925 
	C319.004150,44.513702 319.077667,37.582054 318.988220,30.652510 
	C318.822601,17.827917 313.051788,10.213306 300.229492,9.198771 
	C284.536133,7.957073 268.707306,8.424872 252.936615,8.183755 
	C252.680679,8.179842 252.418839,8.560915 252.533051,8.472125 
	C252.533051,22.844215 252.533051,36.923473 252.533051,51.534447 
	C258.839020,51.534447 264.792542,51.691677 270.722778,51.390244 
	C271.796661,51.335655 273.313782,49.568871 273.708710,48.305664 
	C276.034332,40.867153 278.088348,33.343712 280.499023,25.087820 
M33.667221,7.921576 
	C27.721144,9.267904 21.556326,10.022873 15.887817,12.119607 
	C9.676093,14.417275 5.128228,19.398987 4.294055,26.080202 
	C3.418943,33.089314 3.889429,40.269665 3.828083,47.375664 
	C3.800674,50.550522 5.467671,51.584927 8.602235,51.511749 
	C16.423876,51.329151 24.252636,51.451385 32.078537,51.451309 
	C35.949909,51.451271 39.821281,51.451305 43.692657,51.451305 
	C42.178715,49.434963 40.527645,48.453724 38.917522,47.409355 
	C33.290577,43.759583 31.041071,37.983284 32.573048,31.531265 
	C33.317719,28.395039 35.078495,25.869673 38.306572,26.771336 
	C40.033855,27.253798 41.923481,29.950085 42.284607,31.914774 
	C42.927555,35.412754 42.465332,39.113876 42.465332,42.912552 
	C52.487347,42.912552 61.871365,42.912552 71.879906,42.912552 
	C71.594482,37.976524 71.342171,33.373016 71.059036,28.771402 
	C70.600822,21.324270 67.082939,15.994746 60.317558,12.656040 
	C52.168152,8.634322 43.535831,7.590900 33.667221,7.921576 
M369.997467,51.496620 
	C373.433228,52.561737 376.869019,53.626854 381.166809,54.959209 
	C378.526550,38.171711 376.160828,23.129808 373.794647,8.085094 
	C358.552795,8.085094 343.771606,8.085094 328.609375,8.085094 
	C328.262207,10.681035 328.010803,13.135811 327.595978,15.562651 
	C325.792908,26.110735 323.887756,36.641663 322.140442,47.198807 
	C321.578125,50.596272 321.504639,53.203491 326.750336,52.848984 
	C330.570923,52.590797 335.655518,50.575123 338.082275,56.104866 
	C341.920532,49.900242 348.202576,55.145313 352.641815,52.447205 
	C355.386505,41.775742 358.142944,31.058704 361.254181,18.962097 
	C364.388519,30.543940 367.114716,40.617580 369.997467,51.496620 
M165.703308,58.822990 
	C161.970840,58.822990 158.238373,58.822990 154.568542,58.822990 
	C154.568542,80.351364 154.568542,100.904930 154.568542,121.587273 
	C163.490173,121.587273 172.053223,121.587273 181.064270,121.587273 
	C181.064270,119.664490 181.063278,118.037712 181.064407,116.410927 
	C181.075516,100.598419 181.083511,84.785912 181.099976,68.973404 
	C181.106934,62.290115 176.791153,46.801659 172.995605,40.371895 
	C170.716965,46.507290 168.532806,52.388271 165.703308,58.822990 
z"/>
<path fill="#02831E" opacity="1.000000" stroke="none" 
	d="
M149.993042,59.019386 
	C150.079590,59.475521 150.166122,59.931656 150.271408,60.943436 
	C150.290161,61.499081 150.473953,61.943367 150.473953,61.943367 
	C150.277176,72.969330 150.080414,83.995300 149.811768,95.590561 
	C149.620285,96.391960 149.672012,96.575737 149.895050,96.711197 
	C149.714279,97.219284 149.533508,97.727379 149.230408,98.947723 
	C149.098633,100.104736 149.089203,100.549477 149.079773,100.994225 
	C142.191391,116.497581 128.811798,123.849724 109.977913,121.523186 
	C103.688881,120.746307 97.200790,118.895592 91.582489,116.016190 
	C83.561058,111.905167 79.126595,104.525444 78.936996,95.314743 
	C78.691345,83.380684 78.877052,71.437744 78.877052,58.984428 
	C81.914665,58.984428 85.245056,59.288525 88.475533,58.852455 
	C90.024170,58.643414 92.041122,57.357948 92.710861,56.000103 
	C95.127510,51.100468 97.061722,45.962887 99.775887,39.489468 
	C101.955414,46.589497 103.748848,52.431786 105.713448,58.831654 
	C107.810501,58.831654 110.165764,59.213993 112.343269,58.754314 
	C117.309753,57.705868 118.979980,59.998489 119.957458,64.492752 
	C121.721031,72.601334 124.066391,80.583382 126.398666,89.496910 
	C127.384697,87.910690 128.097458,86.976280 128.589966,85.937439 
	C131.866959,79.025291 135.479980,72.237709 138.211517,65.113541 
	C140.130844,60.107708 142.961868,58.005070 148.815308,58.969650 
	C149.656418,58.990105 149.824738,59.004745 149.993042,59.019386 
z"/>
<path fill="#02841F" opacity="1.000000" stroke="none" 
	d="
M390.264465,113.757233 
	C390.668579,116.478554 391.002533,118.761177 391.401855,121.490479 
	C380.803131,121.490479 370.587189,121.490479 359.708771,121.490479 
	C359.079529,115.019646 358.429260,108.332397 357.759399,101.443947 
	C354.199799,101.443947 350.930939,101.443947 347.105713,101.443947 
	C346.417908,108.030785 345.733765,114.582336 345.010986,121.504181 
	C334.336853,121.504181 323.809204,121.504181 312.785156,121.504181 
	C315.632751,101.049644 318.446777,80.836037 321.303986,60.312233 
	C324.136322,60.312233 326.868713,60.312233 329.984528,60.312233 
	C331.368378,72.264313 332.744965,84.153778 334.121582,96.043243 
	C334.691315,96.089348 335.261047,96.135452 335.830750,96.181557 
	C339.031403,84.491325 342.232056,72.801086 345.491699,60.895348 
	C348.228912,60.895348 350.903290,60.634525 353.505127,60.957664 
	C357.227173,61.419918 359.035919,60.128231 359.420868,56.332554 
	C359.632629,54.244442 360.519958,52.224842 361.149017,50.011539 
	C361.612640,50.421181 361.927002,50.562759 362.002991,50.785625 
	C365.398285,60.741325 365.396057,60.733864 375.753571,61.075279 
	C377.732330,61.140503 379.708008,61.299953 382.178436,61.444866 
	C384.870453,78.865967 387.532379,96.092247 390.264465,113.757233 
z"/>
<path fill="#02831E" opacity="1.000000" stroke="none" 
	d="
M41.276382,102.105865 
	C41.440678,102.069893 41.604973,102.033928 42.064384,101.791489 
	C42.582375,101.466743 42.651314,101.288780 42.566319,101.051132 
	C46.161526,94.429474 44.856659,85.046730 39.241337,79.866928 
	C38.611111,79.239365 38.327988,79.117393 37.967690,79.174545 
	C34.934483,77.127327 31.901278,75.080116 28.415712,72.747360 
	C27.648306,72.358833 27.333258,72.255852 27.018211,72.152870 
	C27.018211,72.152870 26.797306,71.858910 26.459532,71.602318 
	C25.749613,71.230904 25.377466,71.116081 25.005322,71.001266 
	C21.198463,68.399620 17.391605,65.797974 13.140940,62.870674 
	C12.128535,62.150940 11.559938,61.756863 10.991342,61.362789 
	C10.735707,61.017467 10.480074,60.672146 9.991356,59.892845 
	C9.808371,59.299538 9.858470,59.140213 9.908568,58.980888 
	C23.728180,58.980270 37.562073,59.363495 51.362610,58.850155 
	C61.306911,58.480251 67.202301,64.070648 70.708397,71.739868 
	C75.769882,82.811371 75.498634,94.743813 72.134171,106.398430 
	C70.190689,113.130737 64.432388,116.227348 58.427979,118.478622 
	C46.143024,123.084709 33.651878,123.095535 21.312431,118.770050 
	C11.577034,115.357384 5.341317,108.769127 4.628914,97.980072 
	C4.248497,92.218826 4.019685,86.447571 3.705460,80.351181 
	C13.754532,80.351181 23.131819,80.351181 32.264854,80.351181 
	C33.043121,87.622704 33.792896,94.628006 35.023186,102.023819 
	C35.994080,102.535042 36.484463,102.655746 36.974850,102.776443 
	C37.430714,102.846878 37.886578,102.917313 38.998589,102.966873 
	C40.195282,102.665962 40.735832,102.385918 41.276382,102.105865 
z"/>
<path fill="#048521" opacity="1.000000" stroke="none" 
	d="
M294.795410,75.977371 
	C291.024506,75.982582 287.724854,75.982582 283.942383,75.982582 
	C283.942383,91.271057 283.942383,106.176300 283.942383,121.153595 
	C272.859772,121.153595 262.280762,121.153595 252.189362,121.153595 
	C252.189362,100.102844 252.189362,79.759323 252.189362,58.993660 
	C261.307678,58.993660 269.738678,58.993660 278.269196,58.993660 
	C279.965881,53.453827 281.552460,48.273659 283.467926,42.019508 
	C285.308014,47.308926 286.885406,51.492180 288.199219,55.756626 
	C288.941833,58.166992 290.137512,59.102913 292.770813,59.049084 
	C301.375183,58.873203 309.985413,58.983120 318.832703,58.983120 
	C316.706299,70.568283 310.400818,74.787552 294.795410,75.977371 
z"/>
<path fill="#048520" opacity="1.000000" stroke="none" 
	d="
M280.366425,25.468349 
	C278.088348,33.343712 276.034332,40.867153 273.708710,48.305664 
	C273.313782,49.568871 271.796661,51.335655 270.722778,51.390244 
	C264.792542,51.691677 258.839020,51.534447 252.533051,51.534447 
	C252.533051,36.923473 252.533051,22.844215 252.533051,8.472125 
	C252.418839,8.560915 252.680679,8.179842 252.936615,8.183755 
	C268.707306,8.424872 284.536133,7.957073 300.229492,9.198771 
	C313.051788,10.213306 318.822601,17.827917 318.988220,30.652510 
	C319.077667,37.582054 319.004150,44.513702 319.004150,51.768925 
	C311.801666,51.768925 304.366089,51.924751 296.950500,51.610294 
	C295.761871,51.559891 294.134033,49.603096 293.609283,48.192707 
	C290.660980,40.268707 287.997101,32.239090 285.213654,24.253368 
	C284.698761,22.776232 284.080780,21.335033 282.952332,18.450983 
	C281.796448,21.577913 281.147736,23.332867 280.366425,25.468349 
z"/>
<path fill="#038420" opacity="1.000000" stroke="none" 
	d="
M149.946243,33.127270 
	C150.001678,35.802299 150.057129,38.477329 150.126770,42.025562 
	C150.250198,45.241817 150.359436,47.584869 150.468674,49.927925 
	C150.154160,50.420765 149.839645,50.913605 148.726913,51.473240 
	C144.790482,51.655788 141.652237,51.771542 138.514008,51.887299 
	C137.376404,52.755856 135.795197,53.387287 135.181274,54.535782 
	C133.016373,58.585732 131.183167,62.812984 128.656265,68.178917 
	C126.820595,61.671864 125.337845,56.415802 123.837044,51.095760 
	C119.590233,51.095760 115.620979,51.095760 111.180214,51.095760 
	C107.993813,40.324696 104.810364,29.563656 101.386055,17.988396 
	C100.463303,19.497276 99.713020,20.443258 99.257019,21.514507 
	C95.812096,29.607292 92.418083,37.721794 89.021957,45.835285 
	C86.277878,52.391014 86.126556,52.473034 77.666084,50.728897 
	C78.425972,43.157471 78.392166,35.271580 80.160149,27.812771 
	C82.787369,16.728956 94.108353,9.295529 108.008095,8.009307 
	C118.488708,7.039475 128.861008,8.172243 137.896240,13.397066 
	C143.180298,16.452690 147.044525,22.013849 148.967575,29.041958 
	C149.369705,30.857525 149.657974,31.992397 149.946243,33.127270 
z"/>
<path fill="#02831E" opacity="1.000000" stroke="none" 
	d="
M34.143799,7.908743 
	C43.535831,7.590900 52.168152,8.634322 60.317558,12.656040 
	C67.082939,15.994746 70.600822,21.324270 71.059036,28.771402 
	C71.342171,33.373016 71.594482,37.976524 71.879906,42.912552 
	C61.871365,42.912552 52.487347,42.912552 42.465332,42.912552 
	C42.465332,39.113876 42.927555,35.412754 42.284607,31.914774 
	C41.923481,29.950085 40.033855,27.253798 38.306572,26.771336 
	C35.078495,25.869673 33.317719,28.395039 32.573048,31.531265 
	C31.041071,37.983284 33.290577,43.759583 38.917522,47.409355 
	C40.527645,48.453724 42.178715,49.434963 43.692657,51.451305 
	C39.821281,51.451305 35.949909,51.451271 32.078537,51.451309 
	C24.252636,51.451385 16.423876,51.329151 8.602235,51.511749 
	C5.467671,51.584927 3.800674,50.550522 3.828083,47.375664 
	C3.889429,40.269665 3.418943,33.089314 4.294055,26.080202 
	C5.128228,19.398987 9.676093,14.417275 15.887817,12.119607 
	C21.556326,10.022873 27.721144,9.267904 34.143799,7.908743 
z"/>
<path fill="#03841F" opacity="1.000000" stroke="none" 
	d="
M369.919189,51.093918 
	C367.114716,40.617580 364.388519,30.543940 361.254181,18.962097 
	C358.142944,31.058704 355.386505,41.775742 352.641815,52.447205 
	C348.202576,55.145313 341.920532,49.900242 338.082275,56.104866 
	C335.655518,50.575123 330.570923,52.590797 326.750336,52.848984 
	C321.504639,53.203491 321.578125,50.596272 322.140442,47.198807 
	C323.887756,36.641663 325.792908,26.110735 327.595978,15.562651 
	C328.010803,13.135811 328.262207,10.681035 328.609375,8.085094 
	C343.771606,8.085094 358.552795,8.085094 373.794647,8.085094 
	C376.160828,23.129808 378.526550,38.171711 381.166809,54.959209 
	C376.869019,53.626854 373.433228,52.561737 369.919189,51.093918 
z"/>
<path fill="#038520" opacity="1.000000" stroke="none" 
	d="
M166.025970,58.546120 
	C168.532806,52.388271 170.716965,46.507290 172.995605,40.371895 
	C176.791153,46.801659 181.106934,62.290115 181.099976,68.973404 
	C181.083511,84.785912 181.075516,100.598419 181.064407,116.410927 
	C181.063278,118.037712 181.064270,119.664490 181.064270,121.587273 
	C172.053223,121.587273 163.490173,121.587273 154.568542,121.587273 
	C154.568542,100.904930 154.568542,80.351364 154.568542,58.822990 
	C158.238373,58.822990 161.970840,58.822990 166.025970,58.546120 
z"/>
<path fill="#01831D" opacity="1.000000" stroke="none" 
	d="
M221.616211,51.769051 
	C221.785507,49.991566 221.954788,48.214081 222.124069,46.436596 
	C222.452255,46.363941 222.780441,46.291286 223.108627,46.218628 
	C223.718430,48.223042 224.328232,50.227451 224.967010,52.860695 
	C225.132126,53.816849 225.268250,54.144165 225.404358,54.471489 
	C225.744263,55.872684 226.084183,57.273876 226.499832,58.987278 
	C232.357300,58.987278 238.085815,58.915253 243.810211,59.036964 
	C245.276199,59.068134 246.729156,59.711502 248.179962,60.787178 
	C248.245087,61.685219 248.318390,61.869690 248.391693,62.054161 
	C248.353333,80.713753 248.314972,99.373352 248.204437,118.838058 
	C248.177704,120.124779 248.223190,120.606377 248.268677,121.087975 
	C248.268677,121.087975 248.157578,121.092178 247.667572,121.224396 
	C238.740448,121.324181 230.303345,121.291740 221.866241,121.259300 
	C221.866241,121.259300 221.851028,121.172531 221.917404,120.758347 
	C221.884048,119.848442 221.784332,119.352715 221.684601,118.856995 
	C221.673431,99.265182 221.662262,79.673370 221.755371,59.288574 
	C221.775681,58.274208 221.691727,58.052814 221.607758,57.831417 
	C221.612747,57.478764 221.617737,57.126110 221.772202,56.078117 
	C221.819870,54.178204 221.718048,52.973629 221.616211,51.769051 
z"/>
<path fill="#048522" opacity="1.000000" stroke="none" 
	d="
M220.038315,56.010033 
	C219.797134,58.049995 219.555954,60.089954 219.146393,62.794128 
	C219.020493,63.662674 219.062973,63.867004 219.105469,64.071335 
	C216.478882,83.177910 213.852295,102.284485 211.195084,121.613861 
	C204.742554,121.613861 198.659058,121.613861 191.747528,121.613861 
	C188.552582,100.941261 185.359390,80.280045 182.098389,59.180107 
	C183.949844,59.063030 184.569305,58.994576 185.189255,58.990051 
	C187.177689,58.975525 189.166290,58.984653 191.646042,58.984653 
	C194.590683,69.733795 197.515152,80.409271 200.439606,91.084740 
	C200.751770,91.159782 201.063919,91.234818 201.376083,91.309860 
	C201.874146,89.385651 202.407974,87.469879 202.863876,85.535736 
	C204.579041,78.259071 206.441162,71.010536 207.891388,63.680859 
	C208.560654,60.298313 210.005936,58.949291 213.484436,58.907040 
	C215.278549,58.885246 217.056625,57.543522 219.188385,56.374084 
	C219.702637,55.969990 219.870468,55.990009 220.038315,56.010033 
z"/>
<path fill="#03841F" opacity="1.000000" stroke="none" 
	d="
M234.024200,51.670128 
	C233.026688,49.777603 231.594574,47.990353 231.106277,45.974491 
	C228.888474,36.818695 226.936646,27.598473 224.588547,17.051210 
	C221.174759,26.906038 218.184784,35.486198 215.231110,44.078835 
	C212.424744,52.242943 212.441437,52.248680 202.795105,51.881908 
	C204.728607,37.442207 206.654114,23.062244 209.174011,8.357790 
	C210.527008,7.950373 211.285645,7.867445 212.044281,7.784518 
	C223.958725,7.784518 235.873169,7.784518 248.285767,7.784518 
	C248.285767,21.550817 248.285767,34.783142 248.229218,48.756794 
	C248.243393,49.685196 248.314133,49.872269 248.384888,50.059349 
	C248.134598,50.480068 247.884308,50.900784 246.872009,51.331528 
	C242.081406,51.451084 238.052795,51.560608 234.024200,51.670128 
z"/>
<path fill="#058622" opacity="1.000000" stroke="none" 
	d="
M192.971497,7.712649 
	C194.080109,13.154561 195.357880,18.568583 196.260727,24.044418 
	C197.937408,34.213768 199.446548,44.411877 200.901596,54.615669 
	C201.196823,56.686020 200.944305,58.834480 200.944305,62.349785 
	C200.064621,60.438187 199.671112,59.785511 199.453369,59.078690 
	C197.175797,51.685516 197.180923,51.524151 189.266388,51.656143 
	C186.235092,51.706699 184.869827,50.698471 183.986221,47.856018 
	C180.840363,37.736187 177.463989,27.688019 173.749908,16.310959 
	C169.858795,27.037132 166.439728,36.545040 162.944611,46.024918 
	C162.265137,47.867920 161.289612,49.601772 159.739578,51.466309 
	C157.759750,51.606705 156.490967,51.666767 155.222198,51.726830 
	C154.887222,50.820625 154.264648,49.915760 154.260437,49.008015 
	C154.197830,35.572205 154.217270,22.136017 154.217270,7.854384 
	C166.371490,7.854384 178.237473,7.854384 190.885666,7.855710 
	C192.102432,7.808907 192.536957,7.760778 192.971497,7.712649 
z"/>
<path fill="#81CA96" opacity="1.000000" stroke="none" 
	d="
M222.127014,121.609024 
	C230.303345,121.291740 238.740448,121.324181 247.650009,121.277145 
	C245.301285,121.526756 242.483795,122.091492 239.658173,122.135544 
	C233.903687,122.225250 228.144852,122.034149 222.127014,121.609024 
z"/>
<path fill="#B3E2BE" opacity="1.000000" stroke="none" 
	d="
M234.384979,51.844196 
	C238.052795,51.560608 242.081406,51.451084 246.544861,51.506603 
	C242.901718,51.787182 238.823761,51.902721 234.384979,51.844196 
z"/>
<path fill="#EBF8ED" opacity="1.000000" stroke="none" 
	d="
M150.669861,49.665695 
	C150.359436,47.584869 150.250198,45.241817 150.220764,42.464237 
	C150.490738,44.487633 150.680908,46.945553 150.669861,49.665695 
z"/>
<path fill="#81CA96" opacity="1.000000" stroke="none" 
	d="
M220.302780,56.040833 
	C219.870468,55.990009 219.702637,55.969990 219.285172,55.994278 
	C219.688995,54.688717 220.342453,53.338844 221.306061,51.879013 
	C221.718048,52.973629 221.819870,54.178204 221.761810,55.813766 
	C221.257050,56.187050 220.912140,56.129337 220.302780,56.040833 
z"/>
<path fill="#EBF8ED" opacity="1.000000" stroke="none" 
	d="
M138.987305,51.940071 
	C141.652237,51.771542 144.790482,51.655788 148.334564,51.677471 
	C145.647141,51.874222 142.553864,51.933537 138.987305,51.940071 
z"/>
<path fill="#EBF8ED" opacity="1.000000" stroke="none" 
	d="
M155.483673,51.844749 
	C156.490967,51.666767 157.759750,51.606705 159.390076,51.674187 
	C158.416138,51.855377 157.080643,51.909023 155.483673,51.844749 
z"/>
<path fill="#EBF8ED" opacity="1.000000" stroke="none" 
	d="
M149.987427,32.761414 
	C149.657974,31.992397 149.369705,30.857525 149.126160,29.369419 
	C149.456772,30.142643 149.742676,31.269098 149.987427,32.761414 
z"/>
<path fill="#F4FBF6" opacity="1.000000" stroke="none" 
	d="
M11.048861,61.642159 
	C11.559938,61.756863 12.128535,62.150940 12.806110,62.784767 
	C12.312185,62.656849 11.709282,62.289188 11.048861,61.642159 
z"/>
<path fill="#B3E2BE" opacity="1.000000" stroke="none" 
	d="
M211.824066,7.580963 
	C211.285645,7.867445 210.527008,7.950373 209.384460,8.015099 
	C209.868317,7.790400 210.736099,7.583904 211.824066,7.580963 
z"/>
<path fill="#EBF8ED" opacity="1.000000" stroke="none" 
	d="
M192.819489,7.529713 
	C192.536957,7.760778 192.102432,7.808907 191.349213,7.770891 
	C191.576202,7.572090 192.121841,7.459434 192.819489,7.529713 
z"/>
<path fill="#B6E2C1" opacity="1.000000" stroke="none" 
	d="
M248.488663,120.942154 
	C248.223190,120.606377 248.177704,120.124779 248.259521,119.300705 
	C248.494080,119.570938 248.601364,120.183632 248.488663,120.942154 
z"/>
<path fill="#81CA96" opacity="1.000000" stroke="none" 
	d="
M221.492966,119.045639 
	C221.784332,119.352715 221.884048,119.848442 221.897614,120.719002 
	C221.641403,120.473984 221.471375,119.854134 221.492966,119.045639 
z"/>
<path fill="#F4FBF6" opacity="1.000000" stroke="none" 
	d="
M40.963585,102.085175 
	C40.735832,102.385918 40.195282,102.665962 39.338013,102.884094 
	C39.564453,102.569603 40.107620,102.317032 40.963585,102.085175 
z"/>
<path fill="#F4FBF6" opacity="1.000000" stroke="none" 
	d="
M36.820072,102.583527 
	C36.484463,102.655746 35.994080,102.535042 35.391586,102.174316 
	C35.741421,102.086395 36.203358,102.238495 36.820072,102.583527 
z"/>
<path fill="#EDF8F0" opacity="1.000000" stroke="none" 
	d="
M149.286331,100.864975 
	C149.089203,100.549477 149.098633,100.104736 149.249374,99.355484 
	C149.424759,99.612572 149.458832,100.174149 149.286331,100.864975 
z"/>
<path fill="#81CA96" opacity="1.000000" stroke="none" 
	d="
M219.246262,63.957764 
	C219.062973,63.867004 219.020493,63.662674 219.101715,63.170734 
	C219.317566,63.089706 219.433548,63.289936 219.490997,63.505753 
	C219.516769,63.602478 219.425308,63.730415 219.246262,63.957764 
z"/>
<path fill="#F4FBF6" opacity="1.000000" stroke="none" 
	d="
M25.176891,71.237648 
	C25.377466,71.116081 25.749613,71.230904 26.275688,71.600494 
	C26.069233,71.728180 25.708849,71.601105 25.176891,71.237648 
z"/>
<path fill="#F4FBF6" opacity="1.000000" stroke="none" 
	d="
M27.160423,72.352158 
	C27.333258,72.255852 27.648306,72.358833 28.075926,72.695381 
	C27.847193,72.911072 27.551905,72.785240 27.160423,72.352158 
z"/>
<path fill="#F4FBF6" opacity="1.000000" stroke="none" 
	d="
M38.093811,79.361786 
	C38.327988,79.117393 38.611111,79.239365 38.905365,79.766106 
	C38.689461,79.925079 38.431549,79.777496 38.093811,79.361786 
z"/>
<path fill="#EDF8F0" opacity="1.000000" stroke="none" 
	d="
M149.943390,96.589325 
	C149.672012,96.575737 149.620285,96.391960 149.858521,96.054169 
	C150.032364,96.120049 150.037231,96.293045 149.943390,96.589325 
z"/>
<path fill="#B6E2C1" opacity="1.000000" stroke="none" 
	d="
M248.561615,61.958790 
	C248.318390,61.869690 248.245087,61.685219 248.278107,61.222572 
	C248.500137,61.250736 248.615845,61.557076 248.561615,61.958790 
z"/>
<path fill="#F4FBF6" opacity="1.000000" stroke="none" 
	d="
M42.453094,101.109550 
	C42.651314,101.288780 42.582375,101.466743 42.203613,101.581108 
	C42.101578,101.409706 42.198959,101.273293 42.453094,101.109550 
z"/>
<path fill="#EDF8F0" opacity="1.000000" stroke="none" 
	d="
M150.585052,61.853706 
	C150.473953,61.943367 150.290161,61.499081 150.378342,61.275471 
	C150.755173,61.227539 150.831711,61.464935 150.585052,61.853706 
z"/>
<path fill="#F4FBF6" opacity="1.000000" stroke="none" 
	d="
M9.753412,59.053288 
	C9.858470,59.140213 9.808371,59.299538 9.725263,59.707169 
	C9.589549,59.766506 9.464908,59.584850 9.397999,59.383968 
	C9.378852,59.326485 9.526882,59.213318 9.753412,59.053288 
z"/>
<path fill="#81CA96" opacity="1.000000" stroke="none" 
	d="
M221.425797,57.953773 
	C221.691727,58.052814 221.775681,58.274208 221.742554,58.831066 
	C221.498230,58.803066 221.371033,58.439598 221.425797,57.953773 
z"/>
<path fill="#EDF8F0" opacity="1.000000" stroke="none" 
	d="
M149.930817,58.848045 
	C149.824738,59.004745 149.656418,58.990105 149.249023,58.891293 
	C149.296173,58.763653 149.582382,58.720181 149.930817,58.848045 
z"/>
<path fill="#B3E2BE" opacity="1.000000" stroke="none" 
	d="
M248.555267,49.963657 
	C248.314133,49.872269 248.243393,49.685196 248.281479,49.218494 
	C248.546524,49.126266 248.728378,49.299374 248.845215,49.508759 
	C248.886703,49.583099 248.770096,49.745670 248.555267,49.963657 
z"/>
<path fill="#B6E2C1" opacity="1.000000" stroke="none" 
	d="
M225.531860,54.211899 
	C225.268250,54.144165 225.132126,53.816849 225.068970,53.225807 
	C225.314392,53.292160 225.486862,53.622238 225.531860,54.211899 
z"/>
</svg>